<svg width="344" height="44" viewBox="0 0 344 44" fill="none" xmlns="http://www.w3.org/2000/svg">
<rect opacity="0.15" x="88" width="80" height="44" rx="4" fill="white"/>
<path d="M134.069 13.0522H121.934V31.944H134.069V13.0522Z" fill="#FF5F00"/>
<path d="M123.184 22.4999C123.183 20.6808 123.615 18.8852 124.449 17.249C125.283 15.6128 126.497 14.1789 127.998 13.0558C126.139 11.6629 123.906 10.7968 121.555 10.5563C119.203 10.3159 116.828 10.7109 114.701 11.6962C112.574 12.6814 110.781 14.2172 109.527 16.128C108.272 18.0388 107.607 20.2475 107.607 22.5016C107.607 24.7558 108.272 26.9644 109.527 28.8752C110.781 30.786 112.574 32.3218 114.701 33.3071C116.828 34.2923 119.203 34.6873 121.555 34.4469C123.906 34.2065 126.139 33.3403 127.998 31.9475C126.497 30.824 125.283 29.3895 124.449 27.7527C123.615 26.1159 123.182 24.3196 123.184 22.4999V22.4999Z" fill="#EB001B"/>
<path d="M147.187 29.9452V29.5581H147.362V29.478H146.946V29.5581H147.11V29.9452H147.187ZM147.996 29.9452V29.478H147.87L147.723 29.8117L147.576 29.478H147.45V29.9452H147.541V29.5915L147.678 29.8952H147.772L147.909 29.5915V29.9452H147.996Z" fill="#F79E1B"/>
<path d="M148.392 22.4998C148.392 24.7541 147.726 26.9629 146.471 28.8738C145.217 30.7846 143.423 32.3204 141.296 33.3055C139.169 34.2906 136.793 34.6854 134.442 34.4446C132.09 34.2038 129.857 33.3373 127.998 31.944C129.499 30.8198 130.712 29.3855 131.546 27.7492C132.381 26.1129 132.814 24.3174 132.814 22.4981C132.814 20.6788 132.381 18.8833 131.546 17.247C130.712 15.6107 129.499 14.1764 127.998 13.0523C129.857 11.659 132.09 10.7924 134.442 10.5516C136.793 10.3109 139.169 10.7056 141.296 11.6907C143.423 12.6759 145.217 14.2116 146.471 16.1225C147.726 18.0333 148.392 20.2421 148.392 22.4964V22.4998Z" fill="#F79E1B"/>
<rect opacity="0.15" width="80" height="44" rx="4" fill="white"/>
<path d="M63.1503 20.5568H67.6938V10H62.7494V11.4699L61.814 10H57.5379V11.8708L56.7361 10H48.8519C48.5846 10 48.3174 10.1336 48.0501 10.1336C47.7828 10.1336 47.6492 10.2673 47.382 10.4009C47.1147 10.5345 46.9811 10.5345 46.7138 10.6682V10H24.1303L23.4621 11.7372L22.794 10H17.4488V11.8708L16.647 10H12.3708L10.5 14.5434L8 20.5568H13.5735L14.108 19.0869H15.1771L15.7116 20.5568H39.2305V19.2205L40.1659 20.5568H46.7138V19.755C46.8474 19.8886 47.1147 19.8886 47.2483 20.0223C47.382 20.1559 47.6492 20.1559 47.7828 20.2895C48.0501 20.4232 48.3174 20.4232 48.5846 20.4232H53.3953L53.9298 18.9532H54.9989L55.5334 20.4232H62.0813V19.0869L63.1503 20.5568ZM70.5 33.9198L71.0471 32.8549C71.6615 31.6589 71.8224 30.2809 71.5 28.9755V28.9755L71.7129 27.7087C71.8961 26.6185 71.6199 25.5011 70.9499 24.6217L70.5 24.0312H33.7517L32.8163 25.3675L31.8808 24.0312H21.1904V34.588H31.8808L32.8163 33.2517L33.7517 34.588H40.4332V32.3163H40.1659C41.1013 32.3163 41.9031 32.1826 42.5713 31.9154V34.7216H47.382V33.3853L48.3174 34.7216H68.2283C69.0301 34.4543 69.8318 34.3207 70.5 33.9198Z" fill="white"/>
<path d="M68.2283 31.381H64.6203V32.8509H68.0947C69.5646 32.8509 70.5 31.9155 70.5 30.5792C70.5 29.2429 69.6982 28.5747 68.3619 28.5747H66.7583C66.3575 28.5747 66.0902 28.3075 66.0902 27.9066C66.0902 27.5057 66.3575 27.2384 66.7583 27.2384H69.8318L70.5 25.7685H66.892C65.422 25.7685 64.4866 26.7039 64.4866 27.9066C64.4866 29.2429 65.2884 29.911 66.6247 29.911H68.2283C68.6292 29.911 68.8964 30.1783 68.8964 30.5792C69.0301 31.1137 68.7628 31.381 68.2283 31.381V31.381ZM61.6804 31.381H58.0724V32.8509H61.5468C63.0167 32.8509 63.9521 31.9155 63.9521 30.5792C63.9521 29.2429 63.1503 28.5747 61.814 28.5747H60.2105C59.8096 28.5747 59.5423 28.3075 59.5423 27.9066C59.5423 27.5057 59.8096 27.2384 60.2105 27.2384H63.284L63.9521 25.7685H60.3441C58.8742 25.7685 57.9388 26.7039 57.9388 27.9066C57.9388 29.2429 58.7405 29.911 60.0768 29.911H61.6804C62.0813 29.911 62.3486 30.1783 62.3486 30.5792C62.4822 31.1137 62.0813 31.381 61.6804 31.381V31.381ZM57.0033 27.1048V25.6349H51.3909V32.7173H57.0033V31.2473H52.9944V29.7774H56.8697V28.3075H52.9944V26.9712H57.0033V27.1048V27.1048ZM47.9165 27.1048C48.5846 27.1048 48.8519 27.5057 48.8519 27.9066C48.8519 28.3075 48.5846 28.7083 47.9165 28.7083H45.912V26.9712L47.9165 27.1048V27.1048ZM45.912 30.1783H46.7138L48.8519 32.7173H50.8563L48.451 30.0447C49.6537 29.7774 50.3218 28.9756 50.3218 27.9066C50.3218 26.5703 49.3864 25.6349 47.9165 25.6349H44.1748V32.7173H45.7784L45.912 30.1783ZM41.6359 28.0402C41.6359 28.5747 41.3686 28.9756 40.7004 28.9756H38.5624V27.1048H40.5668C41.235 27.1048 41.6359 27.5057 41.6359 28.0402V28.0402ZM36.9588 25.6349V32.7173H38.5624V30.3119H40.7004C42.1704 30.3119 43.2394 29.3765 43.2394 27.9066C43.2394 26.5703 42.304 25.5012 40.8341 25.5012L36.9588 25.6349V25.6349ZM34.5535 32.7173H36.5579L33.7517 29.1092L36.5579 25.6349H34.5535L32.8163 27.9066L31.0791 25.6349H29.0746L31.8808 29.1092L29.0746 32.5836H31.0791L32.8163 30.3119L34.5535 32.7173V32.7173ZM28.5401 27.1048V25.6349H22.9276V32.7173H28.5401V31.2473H24.5312V29.7774H28.4065V28.3075H24.5312V26.9712H28.5401V27.1048V27.1048ZM61.0122 14.5435L63.8185 18.8197H65.8229V11.7373H64.2194V16.4144L63.8185 15.7462L61.2795 11.7373H59.1414V18.8197H60.745V14.009L61.0122 14.5435V14.5435ZM54.0635 14.4099L54.598 12.94L55.1325 14.4099L55.8007 16.0135H53.3953L54.0635 14.4099ZM56.8697 18.8197H58.6069L55.5334 11.7373H53.3953L50.3218 18.8197H52.059L52.7272 17.3498H56.2016L56.8697 18.8197ZM49.3864 18.8197L50.0546 17.3498H49.6537C48.451 17.3498 47.7828 16.548 47.7828 15.3453V15.2117C47.7828 14.009 48.451 13.2072 49.6537 13.2072H51.3909V11.7373H49.52C47.382 11.7373 46.1793 13.2072 46.1793 15.2117V15.3453C46.1793 17.4834 47.382 18.8197 49.3864 18.8197ZM43.3731 18.8197H44.9766V11.8709H43.3731V18.8197ZM39.8987 13.2072C40.5668 13.2072 40.8341 13.6081 40.8341 14.009C40.8341 14.4099 40.5668 14.8108 39.8987 14.8108H37.8942V13.0736L39.8987 13.2072V13.2072ZM37.8942 16.2807H38.696L40.8341 18.8197H42.8385L40.4332 16.1471C41.6359 15.8798 42.304 15.0781 42.304 14.009C42.304 12.6727 41.3686 11.7373 39.8987 11.7373H36.157V18.8197H37.7606L37.8942 16.2807ZM34.9543 13.2072V11.7373H29.3419V18.8197H34.9543V17.3498H30.9454V15.8798H34.8207V14.4099H30.9454V13.0736H34.9543V13.2072V13.2072ZM22.794 18.8197H24.2639L26.2684 13.0736V18.8197H27.8719V11.7373H25.1993L23.5958 16.548L21.9922 11.7373H19.3196V18.8197H20.9232V13.0736L22.794 18.8197ZM14.108 14.4099L14.6425 12.94L15.1771 14.4099L15.8452 16.0135H13.4399L14.108 14.4099V14.4099ZM16.9143 18.8197H18.6514L15.578 11.7373H13.5735L10.5 18.8197H12.2372L12.9053 17.3498H16.3797L16.9143 18.8197Z" fill="url(#paint0_linear)"/>
<rect opacity="0.15" x="176" width="80" height="44" rx="4" fill="white"/>
<path fill-rule="evenodd" clip-rule="evenodd" d="M217.203 19.1831C217.182 21.0061 218.848 22.0217 220.104 22.6277C221.394 23.2479 221.827 23.6459 221.822 24.2004C221.812 25.0499 220.792 25.4242 219.839 25.4388C218.174 25.4645 217.207 24.9942 216.436 24.6393L215.837 27.4127C216.61 27.7637 218.039 28.0697 219.521 28.0851C223.001 28.0851 225.277 26.3866 225.289 23.7547C225.303 20.415 220.615 20.2307 220.647 18.7383C220.658 18.2847 221.095 17.8021 222.052 17.6782C222.527 17.6175 223.836 17.5701 225.318 18.2446L225.901 15.561C225.103 15.275 224.078 15 222.801 15C219.527 15 217.222 16.7203 217.203 19.1831ZM231.498 15.2314C230.862 15.2314 230.325 15.5968 230.088 16.1596L225.116 27.8871H228.595L229.286 25.9963H233.536L233.936 27.8871H237L234.325 15.2314H231.498ZM231.983 18.651L232.987 23.4029H230.239L231.983 18.651ZM212.988 15.2314L210.248 27.8871H213.561L216.301 15.2314H212.988ZM208.087 15.2314L204.638 23.8451L203.244 16.5214C203.08 15.7037 202.434 15.2314 201.716 15.2314H196.078L196 15.5983C197.157 15.8471 198.472 16.2481 199.268 16.6754C199.756 16.9371 199.895 17.1653 200.055 17.787L202.697 27.8871H206.199L211.566 15.2314H208.087Z" fill="white"/>
<rect opacity="0.15" x="264" width="80" height="44" rx="4" fill="white"/>
<path fill-rule="evenodd" clip-rule="evenodd" d="M273.535 11.6181H270.52V22.1134H273.496C275.102 22.1134 276.237 21.7606 277.256 20.8993C278.431 19.9205 279.175 18.432 279.175 16.8655C279.175 13.7722 276.864 11.6181 273.535 11.6181V11.6181ZM275.924 19.5286C275.259 20.0771 274.436 20.3512 273.105 20.3512H272.556V13.4194H273.105C274.436 13.4194 275.219 13.6544 275.924 14.2416C276.629 14.8681 277.06 15.8476 277.06 16.8655C277.06 17.8839 276.629 18.9022 275.924 19.5286ZM280.115 22.1137H282.151V11.6181H280.115V22.1137ZM287.163 15.6518C285.91 15.182 285.558 14.908 285.558 14.3203C285.558 13.6547 286.223 13.1849 287.085 13.1849C287.711 13.1849 288.221 13.4198 288.73 14.0071L289.826 12.6368C288.926 11.8534 287.868 11.4619 286.733 11.4619C284.853 11.4619 283.443 12.7543 283.443 14.4773C283.443 15.9263 284.109 16.6314 286.028 17.3361C286.85 17.6102 287.242 17.8059 287.438 17.9234C287.868 18.1978 288.064 18.589 288.064 19.02C288.064 19.8817 287.399 20.5081 286.459 20.5081C285.519 20.5081 284.696 19.9992 284.226 19.0983L282.934 20.3907C283.874 21.761 285.01 22.3878 286.576 22.3878C288.691 22.3878 290.179 20.978 290.179 18.9417C290.179 17.2574 289.474 16.5132 287.163 15.6518V15.6518ZM290.806 16.8655C290.806 19.9593 293.234 22.3483 296.366 22.3483C297.228 22.3483 298.011 22.1913 298.912 21.7606V19.3325C298.089 20.1546 297.385 20.5074 296.445 20.5074C294.408 20.5074 292.92 18.9801 292.92 16.8652C292.92 14.8681 294.447 13.2625 296.366 13.2625C297.345 13.2625 298.089 13.6148 298.912 14.4374V12.0484C298.05 11.5782 297.306 11.3828 296.405 11.3828C293.312 11.3832 290.806 13.8505 290.806 16.8655V16.8655Z" fill="#F4F4F4"/>
<path fill-rule="evenodd" clip-rule="evenodd" d="M315.516 18.6673L312.736 11.6182H310.464L314.929 22.3875H316.026L320.568 11.6182H318.336L315.516 18.6673ZM321.508 22.1138H327.304V20.3512H323.545V17.5316H327.147V15.7302H323.545V13.4195H327.304V11.6182H321.508V22.1138ZM335.41 14.7119C335.41 12.7539 334.079 11.6182 331.69 11.6182H328.674V22.1134H330.711V17.9231H330.985L333.804 22.1134H336.311L333.021 17.6878C334.548 17.3749 335.41 16.3175 335.41 14.7119ZM331.298 16.4745H330.711V13.2633H331.337C332.63 13.2633 333.295 13.8114 333.295 14.8297C333.295 15.8868 332.63 16.4745 331.298 16.4745ZM336.607 12.5491C336.607 12.6296 336.552 12.6722 336.44 12.6722H336.402V12.4316H336.443C336.554 12.432 336.607 12.47 336.607 12.5491ZM336.935 13.185L336.63 12.8026C336.76 12.7691 336.835 12.6741 336.835 12.5434C336.835 12.3624 336.708 12.2602 336.482 12.2602H336.188V13.185H336.406V12.8269L336.665 13.185H336.935ZM337.324 12.7209C337.324 12.2792 336.964 11.915 336.528 11.915C336.422 11.9143 336.317 11.9347 336.219 11.9749C336.121 12.0151 336.031 12.0744 335.956 12.1494C335.881 12.2243 335.822 12.3134 335.781 12.4115C335.741 12.5096 335.72 12.6148 335.721 12.7209C335.721 13.1698 336.081 13.5278 336.528 13.5278C336.964 13.5275 337.324 13.1637 337.324 12.7209ZM337.161 12.7231C337.161 13.0858 336.876 13.383 336.525 13.383C336.171 13.383 335.88 13.0873 335.88 12.7231C335.88 12.3548 336.168 12.0621 336.525 12.0621C336.876 12.0621 337.161 12.3594 337.161 12.7231Z" fill="#F4F4F4"/>
<path d="M283.108 31.5996V24.9277L287.664 29.6939V25.3526H288.607V31.9799L284.051 27.2259V31.5996H283.108Z" fill="#F4F4F4"/>
<path d="M293.555 26.2386H291.051V27.7397H293.482V28.6258H291.051V30.7135H293.555V31.5996H290.108V25.3526H293.555V26.2386Z" fill="#F4F4F4"/>
<path d="M296.517 26.2386V31.5996H295.574V26.2386H294.138V25.3526H297.949V26.2386H296.517Z" fill="#F4F4F4"/>
<path d="M299.47 25.3526L301.097 29.528L302.796 25.0491L304.423 29.528L306.15 25.3526H307.174L304.382 31.9961L302.776 27.5698L301.101 32.0001L298.447 25.3526H299.47Z" fill="#F4F4F4"/>
<path d="M307.356 28.4478C307.356 27.5684 307.678 26.8132 308.323 26.182C308.965 25.5508 309.736 25.2352 310.637 25.2352C311.528 25.2352 312.291 25.5535 312.927 26.1901C313.567 26.8267 313.886 27.5914 313.886 28.4842C313.886 29.3824 313.565 30.1444 312.923 30.7702C312.279 31.3986 311.501 31.7129 310.589 31.7129C309.782 31.7129 309.058 31.4337 308.416 30.8754C307.709 30.2577 307.356 29.4485 307.356 28.4478ZM308.307 28.4599C308.307 29.1504 308.539 29.7182 309.003 30.1633C309.464 30.6083 309.997 30.8309 310.601 30.8309C311.256 30.8309 311.809 30.6043 312.26 30.1511C312.71 29.6926 312.936 29.1342 312.936 28.4761C312.936 27.8098 312.713 27.2515 312.268 26.801C311.826 26.3479 311.278 26.1213 310.625 26.1213C309.975 26.1213 309.426 26.3479 308.979 26.801C308.531 27.2488 308.307 27.8017 308.307 28.4599Z" fill="#F4F4F4"/>
<path d="M317.188 28.9373L319.122 31.5996H317.969L316.184 29.0425H316.015V31.5996H315.072V25.3526H316.176C317.002 25.3526 317.598 25.5077 317.965 25.8179C318.369 26.1631 318.572 26.619 318.572 27.1854C318.572 27.6278 318.445 28.0081 318.191 28.3264C317.938 28.6447 317.603 28.8483 317.188 28.9373ZM316.015 28.2212H316.314C317.207 28.2212 317.653 27.88 317.653 27.1975C317.653 26.5583 317.219 26.2386 316.35 26.2386H316.015V28.2212Z" fill="#F4F4F4"/>
<path d="M321.007 27.8449L323.439 25.3526H324.697L321.873 28.1807L324.713 31.5996H323.451L321.202 28.82L321.007 29.0142V31.5996H320.065V25.3526H321.007V27.8449Z" fill="#F4F4F4"/>
<circle cx="305.004" cy="16.8653" r="5.48245" fill="#D97B16"/>
<defs>
<linearGradient id="paint0_linear" x1="10.5" y1="22.0001" x2="70.5" y2="22.0001" gradientUnits="userSpaceOnUse">
<stop stop-color="#008FE0"/>
<stop offset="1" stop-color="#006198"/>
</linearGradient>
</defs>
</svg>
